<svg id="visual" viewBox="0 0 900 600" width="900" height="600" xmlns="http://www.w3.org/2000/svg" xmlns:xlink="http://www.w3.org/1999/xlink" version="1.1"><rect x="0" y="0" width="900" height="600" fill="#ffffff"></rect><defs><linearGradient id="grad1_0" x1="33.3%" y1="0%" x2="100%" y2="100%"><stop offset="20%" stop-color="#ffffff" stop-opacity="1"></stop><stop offset="80%" stop-color="#ffffff" stop-opacity="1"></stop></linearGradient></defs><defs><linearGradient id="grad2_0" x1="0%" y1="0%" x2="66.7%" y2="100%"><stop offset="20%" stop-color="#ffffff" stop-opacity="1"></stop><stop offset="80%" stop-color="#ffffff" stop-opacity="1"></stop></linearGradient></defs><g transform="translate(900, 0)"><path d="M0 324.5C-39.4 328.7 -78.8 332.9 -100.3 308.6C-121.7 284.4 -125.2 231.7 -152.2 209.5C-179.3 187.4 -230 195.7 -243.5 176.9C-257 158.1 -233.3 112.2 -240.6 78.2C-247.9 44.2 -286.2 22.1 -324.5 0L0 0Z" fill="#000000"></path></g><g transform="translate(0, 600)"><path d="M0 -324.5C31.4 -318.8 62.8 -313.2 99.8 -307.2C136.9 -301.2 179.5 -294.9 190.7 -262.5C201.9 -230.1 181.6 -171.5 195 -141.7C208.3 -111.8 255.3 -110.6 282.5 -91.8C309.7 -73 317.1 -36.5 324.5 0L0 0Z" fill="#000000"></path></g></svg>